<svg role="img" viewBox="0 0 25 25" xmlns="http://www.w3.org/2000/svg" id="Tryhackme--Streamline-Simple-Icons" height="25" width="25"><desc>Tryhackme Streamline Icon: https://streamlinehq.com</desc><title>TryHackMe</title><path d="M11.151041666666668 0C7.854166666666667 0 5.10625 2.3802083333333335 4.530208333333334 5.5114583333333345a4.713541666666667 4.713541666666667 0 0 0 -4.278125 4.6875 4.713541666666667 4.713541666666667 0 0 0 4.708333333333333 4.708333333333333h7.042708333333334a0.6510416666666667 0.6510416666666667 0 1 0 0 -1.3020833333333335H4.9593750000000005a3.4093750000000003 3.4093750000000003 0 0 1 -3.4062500000000004 -3.4062500000000004A3.4093750000000003 3.4093750000000003 0 0 1 6.864583333333334 7.375000000000001a0.6510416666666667 0.6510416666666667 0 0 0 0.7291666666666666 -1.078125 4.675000000000001 4.675000000000001 0 0 0 -1.75 -0.71875 5.440625 5.440625 0 0 1 5.308333333333334 -4.275 5.4385416666666675 5.4385416666666675 0 0 1 5.389583333333334 4.760416666666667 4.676041666666666 4.676041666666666 0 0 0 -0.5083333333333333 0.31770833333333337 0.6510416666666667 0.6510416666666667 0 1 0 0.7614583333333333 1.0552083333333333 3.3802083333333335 3.3802083333333335 0 0 1 1.9916666666666667 -0.6416666666666667 3.4145833333333337 3.4145833333333337 0 0 1 3.3364583333333333 2.71875 0.6510416666666667 0.6510416666666667 0 0 0 1.2760416666666667 -0.26145833333333335 4.721875000000001 4.721875000000001 0 0 0 -4.6125 -3.760416666666667 4.729166666666667 4.729166666666667 0 0 0 -0.9979166666666667 0.109375C17.245833333333337 2.425 14.479166666666668 0 11.151041666666668 0zm5.408333333333334 11.083333333333334a0.9635416666666667 0.9635416666666667 0 0 0 -0.48125000000000007 0.1125 0.9510416666666668 0.9510416666666668 0 0 0 -0.3260416666666667 0.3020833333333333 1.3229166666666667 1.3229166666666667 0 0 0 -0.18229166666666666 0.4447916666666667 2.4895833333333335 2.4895833333333335 0 0 0 -0.05625 0.5354166666666668c0 0.18854166666666666 0.01875 0.36770833333333336 0.05625 0.5385416666666667 0.0375 0.17083333333333336 0.09895833333333334 0.3197916666666667 0.18229166666666666 0.4479166666666667a0.9364583333333334 0.9364583333333334 0 0 0 0.3260416666666667 0.309375c0.13229166666666667 0.07604166666666667 0.2927083333333334 0.11458333333333334 0.48125000000000007 0.11458333333333334 0.1875 0 0.3479166666666667 -0.03854166666666667 0.47916666666666674 -0.11458333333333334a0.9343750000000001 0.9343750000000001 0 0 0 0.321875 -0.30833333333333335c0.08333333333333334 -0.12916666666666668 0.14270833333333335 -0.278125 0.18020833333333333 -0.44895833333333335 0.0375 -0.17083333333333336 0.05625 -0.35000000000000003 0.05625 -0.5385416666666667 0 -0.1875 -0.01875 -0.3666666666666667 -0.05625 -0.5354166666666668a1.3239583333333333 1.3239583333333333 0 0 0 -0.18020833333333333 -0.44375000000000003 0.9385416666666667 0.9385416666666667 0 0 0 -0.321875 -0.303125 0.9552083333333334 0.9552083333333334 0 0 0 -0.47916666666666674 -0.1125zm6.7562500000000005 0a0.9635416666666667 0.9635416666666667 0 0 0 -0.48125000000000007 0.1125 0.9510416666666668 0.9510416666666668 0 0 0 -0.3260416666666667 0.3020833333333333 1.3229166666666667 1.3229166666666667 0 0 0 -0.18229166666666666 0.4447916666666667 2.4895833333333335 2.4895833333333335 0 0 0 -0.05520833333333334 0.5354166666666668c0 0.18854166666666666 0.017708333333333336 0.36770833333333336 0.05520833333333334 0.5385416666666667 0.0375 0.17083333333333336 0.09895833333333334 0.3197916666666667 0.18229166666666666 0.4479166666666667a0.9364583333333334 0.9364583333333334 0 0 0 0.3260416666666667 0.309375c0.13229166666666667 0.07604166666666667 0.2927083333333334 0.11458333333333334 0.48125000000000007 0.11458333333333334 0.1875 0 0.3479166666666667 -0.03854166666666667 0.47916666666666674 -0.11458333333333334a0.9343750000000001 0.9343750000000001 0 0 0 0.3229166666666667 -0.30833333333333335c0.08125 -0.12916666666666668 0.1416666666666667 -0.278125 0.17916666666666667 -0.44895833333333335 0.0375 -0.17083333333333336 0.05625 -0.35000000000000003 0.05625 -0.5385416666666667 0 -0.1875 -0.01875 -0.3666666666666667 -0.05625 -0.5354166666666668a1.3239583333333333 1.3239583333333333 0 0 0 -0.18020833333333333 -0.44375000000000003 0.9385416666666667 0.9385416666666667 0 0 0 -0.32083333333333336 -0.303125 0.9541666666666667 0.9541666666666667 0 0 0 -0.4802083333333334 -0.1125zm-8.892708333333335 0.07083333333333335 -0.875 0.64375 0.3260416666666667 0.4479166666666667 0.49583333333333335 -0.38333333333333336v1.9552083333333334h0.628125v-2.6635416666666667zm6.7562500000000005 0 -0.8760416666666667 0.64375 0.32708333333333334 0.4479166666666667 0.496875 -0.38333333333333336v1.9552083333333334h0.628125v-2.6635416666666667zm-4.619791666666667 0.4635416666666667c0.08333333333333334 0 0.14895833333333333 0.02916666666666667 0.20104166666666667 0.08750000000000001 0.05208333333333334 0.059375000000000004 0.090625 0.13229166666666667 0.11875000000000001 0.21875 0.027083333333333334 0.08645833333333335 0.04583333333333334 0.18020833333333333 0.05625 0.2802083333333334a2.646875 2.646875 0 0 1 0 0.5552083333333334c-0.010416666666666668 0.10104166666666668 -0.02916666666666667 0.19479166666666667 -0.05625 0.28125000000000006a0.6083333333333334 0.6083333333333334 0 0 1 -0.11875000000000001 0.21875 0.253125 0.253125 0 0 1 -0.20104166666666667 0.08854166666666669 0.25833333333333336 0.25833333333333336 0 0 1 -0.20312500000000003 -0.08958333333333333 0.6083333333333334 0.6083333333333334 0 0 1 -0.12291666666666667 -0.21770833333333334 1.2968750000000002 1.2968750000000002 0 0 1 -0.05833333333333334 -0.28125000000000006 2.7552083333333335 2.7552083333333335 0 0 1 0 -0.5552083333333334c0.010416666666666668 -0.1 0.030208333333333337 -0.19375 0.05833333333333334 -0.28125000000000006a0.6072916666666667 0.6072916666666667 0 0 1 0.12291666666666667 -0.21770833333333334 0.2604166666666667 0.2604166666666667 0 0 1 0.20312500000000003 -0.08750000000000001zm6.7562500000000005 0c0.08333333333333334 0 0.15 0.02916666666666667 0.20104166666666667 0.08750000000000001 0.05208333333333334 0.059375000000000004 0.090625 0.13229166666666667 0.11875000000000001 0.21875 0.028125 0.08645833333333335 0.04583333333333334 0.18020833333333333 0.05625 0.2802083333333334a2.646875 2.646875 0 0 1 0 0.5552083333333334c-0.010416666666666668 0.10104166666666668 -0.028125 0.19479166666666667 -0.05625 0.28125000000000006a0.6083333333333334 0.6083333333333334 0 0 1 -0.11875000000000001 0.21875 0.253125 0.253125 0 0 1 -0.20104166666666667 0.08854166666666669 0.259375 0.259375 0 0 1 -0.20312500000000003 -0.08958333333333333 0.6052083333333333 0.6052083333333333 0 0 1 -0.12187500000000001 -0.21770833333333334 1.2968750000000002 1.2968750000000002 0 0 1 -0.05833333333333334 -0.28125000000000006 2.752083333333333 2.752083333333333 0 0 1 0 -0.5552083333333334c0.010416666666666668 -0.1 0.02916666666666667 -0.19375 0.05833333333333334 -0.28125000000000006a0.6041666666666666 0.6041666666666666 0 0 1 0.12187500000000001 -0.21770833333333334 0.2604166666666667 0.2604166666666667 0 0 1 0.20312500000000003 -0.08750000000000001zm-2.2822916666666666 3.65625a0.9687500000000001 0.9687500000000001 0 0 0 -0.48229166666666673 0.11354166666666668 0.9458333333333334 0.9458333333333334 0 0 0 -0.325 0.303125c-0.08333333333333334 0.12708333333333333 -0.14479166666666668 0.27395833333333336 -0.18229166666666666 0.44375000000000003a2.482291666666667 2.482291666666667 0 0 0 -0.05625 0.5354166666666668c0 0.1875 0.01875 0.36770833333333336 0.05625 0.5375000000000001 0.0375 0.17083333333333336 0.09791666666666668 0.32083333333333336 0.18229166666666666 0.45a0.9479166666666667 0.9479166666666667 0 0 0 0.325 0.30833333333333335 0.9583333333333335 0.9583333333333335 0 0 0 0.48229166666666673 0.11458333333333334c0.1875 0 0.34687500000000004 -0.03854166666666667 0.47916666666666674 -0.11458333333333334a0.9291666666666667 0.9291666666666667 0 0 0 0.32083333333333336 -0.30833333333333335 1.3750000000000002 1.3750000000000002 0 0 0 0.18125 -0.45c0.0375 -0.16979166666666667 0.05625 -0.34895833333333337 0.05625 -0.5375000000000001 0 -0.1875 -0.01875 -0.3666666666666667 -0.05625 -0.5354166666666668a1.3270833333333334 1.3270833333333334 0 0 0 -0.18125 -0.44375000000000003 0.9270833333333334 0.9270833333333334 0 0 0 -0.321875 -0.303125 0.9562500000000002 0.9562500000000002 0 0 0 -0.47916666666666674 -0.1125zm-6.66875 0.07291666666666669 -0.8760416666666667 0.6427083333333333 0.32708333333333334 0.4479166666666667 0.49583333333333335 -0.384375v1.95625h0.6291666666666667v-2.6635416666666667zm2.213541666666667 0 -0.8760416666666667 0.6427083333333333 0.32708333333333334 0.4479166666666667 0.496875 -0.384375v1.95625h0.628125v-2.6635416666666667zm2.204166666666667 0 -0.875 0.6427083333333333 0.3260416666666667 0.4479166666666667 0.496875 -0.384375v1.95625h0.628125v-2.6635416666666667zm2.2500000000000004 0.46145833333333336c0.08333333333333334 0 0.15 0.02916666666666667 0.20208333333333336 0.08854166666666669a0.6302083333333334 0.6302083333333334 0 0 1 0.11875000000000001 0.21875c0.027083333333333334 0.08645833333333335 0.04583333333333334 0.17916666666666667 0.05520833333333334 0.2802083333333334a2.7489583333333334 2.7489583333333334 0 0 1 0 0.5541666666666667 1.3333333333333335 1.3333333333333335 0 0 1 -0.05520833333333334 0.28125000000000006 0.609375 0.609375 0 0 1 -0.11875000000000001 0.21875 0.25416666666666665 0.25416666666666665 0 0 1 -0.20104166666666667 0.08854166666666669 0.2604166666666667 0.2604166666666667 0 0 1 -0.2041666666666667 -0.08854166666666669 0.6135416666666667 0.6135416666666667 0 0 1 -0.12187500000000001 -0.21875 1.2968750000000002 1.2968750000000002 0 0 1 -0.05833333333333334 -0.28125000000000006 2.7052083333333337 2.7052083333333337 0 0 1 0 -0.5541666666666667c0.010416666666666668 -0.10104166666666668 0.02916666666666667 -0.19375 0.05833333333333334 -0.28125000000000006a0.6135416666666667 0.6135416666666667 0 0 1 0.12187500000000001 -0.21770833333333334 0.259375 0.259375 0 0 1 0.2041666666666667 -0.08854166666666669zm-7.009375 3.201041666666667a0.7041666666666667 0.7041666666666667 0 0 0 -0.34895833333333337 0.08125 0.6885416666666667 0.6885416666666667 0 0 0 -0.23645833333333335 0.21979166666666666 0.9479166666666667 0.9479166666666667 0 0 0 -0.13229166666666667 0.3229166666666667c-0.028125 0.12291666666666667 -0.04166666666666667 0.2520833333333333 -0.04166666666666667 0.3885416666666667s0.013541666666666667 0.2666666666666667 0.04166666666666667 0.390625a0.9687500000000001 0.9687500000000001 0 0 0 0.13229166666666667 0.3260416666666667 0.6770833333333334 0.6770833333333334 0 0 0 0.23645833333333335 0.22395833333333334c0.09583333333333334 0.05520833333333334 0.2125 0.08333333333333334 0.34895833333333337 0.08333333333333334a0.6822916666666667 0.6822916666666667 0 0 0 0.3479166666666667 -0.08333333333333334 0.6770833333333334 0.6770833333333334 0 0 0 0.23437500000000003 -0.22395833333333334c0.059375000000000004 -0.09375 0.10416666666666669 -0.20208333333333336 0.13020833333333334 -0.3260416666666667a1.8229166666666667 1.8229166666666667 0 0 0 0.04166666666666667 -0.390625c0 -0.13541666666666669 -0.014583333333333335 -0.265625 -0.04166666666666667 -0.3885416666666667a0.9697916666666668 0.9697916666666668 0 0 0 -0.13020833333333334 -0.3229166666666667 0.6854166666666668 0.6854166666666668 0 0 0 -0.23437500000000003 -0.21875 0.6947916666666668 0.6947916666666668 0 0 0 -0.3479166666666667 -0.08333333333333334zm3.2145833333333336 0a0.7031250000000001 0.7031250000000001 0 0 0 -0.35000000000000003 0.08125 0.6885416666666667 0.6885416666666667 0 0 0 -0.2354166666666667 0.21979166666666666 0.9447916666666668 0.9447916666666668 0 0 0 -0.13229166666666667 0.3229166666666667 1.7604166666666667 1.7604166666666667 0 0 0 -0.04166666666666667 0.3885416666666667c0 0.13645833333333335 0.013541666666666667 0.2666666666666667 0.04166666666666667 0.390625a0.9666666666666668 0.9666666666666668 0 0 0 0.13229166666666667 0.3260416666666667c0.060416666666666674 0.09375 0.13958333333333336 0.16875 0.2354166666666667 0.22395833333333334 0.096875 0.05520833333333334 0.21354166666666666 0.08333333333333334 0.35000000000000003 0.08333333333333334a0.6822916666666667 0.6822916666666667 0 0 0 0.3479166666666667 -0.08333333333333334 0.6770833333333334 0.6770833333333334 0 0 0 0.23333333333333336 -0.22395833333333334c0.060416666666666674 -0.09375 0.10416666666666669 -0.20208333333333336 0.13125 -0.3260416666666667a1.8250000000000002 1.8250000000000002 0 0 0 0 -0.7791666666666667 0.9791666666666666 0.9791666666666666 0 0 0 -0.13125 -0.3229166666666667 0.6843750000000001 0.6843750000000001 0 0 0 -0.23333333333333336 -0.21875 0.6947916666666668 0.6947916666666668 0 0 0 -0.3479166666666667 -0.08333333333333334zm5.320833333333334 0a0.7031250000000001 0.7031250000000001 0 0 0 -0.35000000000000003 0.08125 0.6885416666666667 0.6885416666666667 0 0 0 -0.2354166666666667 0.21979166666666666 0.9479166666666667 0.9479166666666667 0 0 0 -0.13229166666666667 0.3229166666666667c-0.028125 0.12291666666666667 -0.04166666666666667 0.2520833333333333 -0.04166666666666667 0.3885416666666667s0.013541666666666667 0.2666666666666667 0.04166666666666667 0.390625a0.9697916666666668 0.9697916666666668 0 0 0 0.13229166666666667 0.3260416666666667c0.060416666666666674 0.09375 0.13958333333333336 0.16875 0.2354166666666667 0.22395833333333334 0.096875 0.05520833333333334 0.21354166666666666 0.08333333333333334 0.35000000000000003 0.08333333333333334 0.13541666666666669 0 0.253125 -0.028125 0.3479166666666667 -0.08333333333333334a0.6770833333333334 0.6770833333333334 0 0 0 0.23333333333333336 -0.22395833333333334c0.060416666666666674 -0.09375 0.10416666666666669 -0.20208333333333336 0.13125 -0.3260416666666667a1.8229166666666667 1.8229166666666667 0 0 0 0.04166666666666667 -0.390625c0 -0.13541666666666669 -0.014583333333333335 -0.265625 -0.04166666666666667 -0.3885416666666667a0.9822916666666667 0.9822916666666667 0 0 0 -0.13125 -0.3229166666666667 0.6843750000000001 0.6843750000000001 0 0 0 -0.23333333333333336 -0.21875 0.6958333333333334 0.6958333333333334 0 0 0 -0.3479166666666667 -0.08333333333333334zm-6.935416666666668 0.05208333333333334 -0.6354166666666667 0.46666666666666673 0.23645833333333335 0.32395833333333335 0.36041666666666666 -0.27708333333333335v1.4187500000000002h0.45625000000000004v-1.9333333333333336zm3.1958333333333337 0 -0.6354166666666667 0.46666666666666673 0.23645833333333335 0.32395833333333335 0.36041666666666666 -0.27708333333333335v1.4187500000000002h0.45625000000000004v-1.9333333333333336zm5.320833333333334 0 -0.6364583333333333 0.46666666666666673 0.23750000000000002 0.32395833333333335 0.36041666666666666 -0.27708333333333335v1.4187500000000002h0.45625000000000004v-1.9333333333333336zm-10.116666666666667 0.3354166666666667c0.060416666666666674 0 0.109375 0.020833333333333336 0.14583333333333337 0.06458333333333334a0.43854166666666666 0.43854166666666666 0 0 1 0.08645833333333335 0.15729166666666666 1 1 0 0 1 0.04166666666666667 0.2041666666666667 2.0125 2.0125 0 0 1 0 0.40208333333333335 0.99375 0.99375 0 0 1 -0.04166666666666667 0.20520833333333335 0.43854166666666666 0.43854166666666666 0 0 1 -0.08645833333333335 0.15833333333333335 0.18333333333333335 0.18333333333333335 0 0 1 -0.14583333333333337 0.06354166666666666 0.1875 0.1875 0 0 1 -0.146875 -0.0625 0.4447916666666667 0.4447916666666667 0 0 1 -0.08854166666666669 -0.15937500000000002 0.9239583333333334 0.9239583333333334 0 0 1 -0.04270833333333334 -0.20520833333333335 2.041666666666667 2.041666666666667 0 0 1 0 -0.40208333333333335 0.9302083333333334 0.9302083333333334 0 0 1 0.04166666666666667 -0.2041666666666667 0.4375 0.4375 0 0 1 0.08958333333333333 -0.15729166666666666 0.18854166666666666 0.18854166666666666 0 0 1 0.146875 -0.06458333333333334zm3.2145833333333336 0c0.060416666666666674 0 0.10833333333333334 0.020833333333333336 0.14583333333333337 0.06458333333333334a0.43854166666666666 0.43854166666666666 0 0 1 0.08541666666666668 0.15729166666666666 0.9791666666666666 0.9791666666666666 0 0 1 0.04166666666666667 0.2041666666666667 1.9854166666666668 1.9854166666666668 0 0 1 0 0.40208333333333335 0.9687500000000001 0.9687500000000001 0 0 1 -0.04166666666666667 0.20520833333333335 0.43854166666666666 0.43854166666666666 0 0 1 -0.08541666666666668 0.15833333333333335 0.18333333333333335 0.18333333333333335 0 0 1 -0.14583333333333337 0.06354166666666666 0.1875 0.1875 0 0 1 -0.146875 -0.0625 0.4375 0.4375 0 0 1 -0.08958333333333333 -0.15937500000000002 0.8812500000000001 0.8812500000000001 0 0 1 -0.04166666666666667 -0.20520833333333335 2.0468750000000004 2.0468750000000004 0 0 1 -0.011458333333333334 -0.20312500000000003c0 -0.059375000000000004 0.0041666666666666675 -0.12604166666666666 0.010416666666666668 -0.19895833333333335a0.884375 0.884375 0 0 1 0.04270833333333334 -0.2041666666666667 0.4375 0.4375 0 0 1 0.08958333333333333 -0.15729166666666666 0.18958333333333335 0.18958333333333335 0 0 1 0.146875 -0.06458333333333334zm5.320833333333334 0c0.060416666666666674 0 0.10833333333333334 0.020833333333333336 0.14583333333333337 0.06458333333333334a0.43854166666666666 0.43854166666666666 0 0 1 0.08541666666666668 0.15729166666666666 0.9583333333333335 0.9583333333333335 0 0 1 0.04166666666666667 0.2041666666666667 2.044791666666667 2.044791666666667 0 0 1 0 0.40208333333333335 0.9822916666666667 0.9822916666666667 0 0 1 -0.04166666666666667 0.20520833333333335 0.43854166666666666 0.43854166666666666 0 0 1 -0.08541666666666668 0.15833333333333335 0.184375 0.184375 0 0 1 -0.14583333333333337 0.06354166666666666 0.1875 0.1875 0 0 1 -0.14791666666666667 -0.0625 0.4552083333333334 0.4552083333333334 0 0 1 -0.08854166666666669 -0.15937500000000002 0.9895833333333334 0.9895833333333334 0 0 1 -0.04166666666666667 -0.20520833333333335 2.0468750000000004 2.0468750000000004 0 0 1 -0.011458333333333334 -0.20312500000000003c0 -0.059375000000000004 0.0041666666666666675 -0.12604166666666666 0.010416666666666668 -0.19895833333333335a0.9989583333333334 0.9989583333333334 0 0 1 0.04166666666666667 -0.2041666666666667 0.4895833333333333 0.4895833333333333 0 0 1 0.08958333333333333 -0.15729166666666666 0.18854166666666666 0.18854166666666666 0 0 1 0.14791666666666667 -0.06458333333333334zm-1.7541666666666667 1.8895833333333336a0.7031250000000001 0.7031250000000001 0 0 0 -0.35000000000000003 0.08229166666666668 0.6875000000000001 0.6875000000000001 0 0 0 -0.23645833333333335 0.21875 0.9479166666666667 0.9479166666666667 0 0 0 -0.13229166666666667 0.3229166666666667 1.8031250000000003 1.8031250000000003 0 0 0 0 0.7791666666666667 0.978125 0.978125 0 0 0 0.13229166666666667 0.32708333333333334c0.06145833333333334 0.09375 0.13958333333333336 0.16875 0.23645833333333335 0.22395833333333334 0.096875 0.05520833333333334 0.21354166666666666 0.08333333333333334 0.35000000000000003 0.08333333333333334a0.6875000000000001 0.6875000000000001 0 0 0 0.3479166666666667 -0.08333333333333334 0.675 0.675 0 0 0 0.23333333333333336 -0.22395833333333334c0.060416666666666674 -0.09375 0.10416666666666669 -0.20312500000000003 0.13125 -0.32708333333333334a1.8093750000000002 1.8093750000000002 0 0 0 -0.0010416666666666669 -0.7781250000000001 0.9666666666666668 0.9666666666666668 0 0 0 -0.13020833333333334 -0.3229166666666667 0.6770833333333334 0.6770833333333334 0 0 0 -0.23333333333333336 -0.21979166666666666 0.6958333333333334 0.6958333333333334 0 0 0 -0.3479166666666667 -0.08229166666666668zm3.1906250000000003 0a0.7041666666666667 0.7041666666666667 0 0 0 -0.35000000000000003 0.08229166666666668 0.6916666666666668 0.6916666666666668 0 0 0 -0.23645833333333335 0.21875 0.9437500000000001 0.9437500000000001 0 0 0 -0.13229166666666667 0.3229166666666667 1.8125000000000002 1.8125000000000002 0 0 0 0 0.7791666666666667 0.9750000000000001 0.9750000000000001 0 0 0 0.13229166666666667 0.32708333333333334 0.6875000000000001 0.6875000000000001 0 0 0 0.23645833333333335 0.22395833333333334c0.09583333333333334 0.05520833333333334 0.2125 0.08333333333333334 0.35000000000000003 0.08333333333333334a0.68125 0.68125 0 0 0 0.3479166666666667 -0.08333333333333334 0.675 0.675 0 0 0 0.23229166666666667 -0.22395833333333334c0.060416666666666674 -0.09375 0.10416666666666669 -0.20312500000000003 0.13125 -0.32708333333333334a1.8125000000000002 1.8125000000000002 0 0 0 0 -0.7781250000000001 0.9666666666666668 0.9666666666666668 0 0 0 -0.13125 -0.3229166666666667 0.6770833333333334 0.6770833333333334 0 0 0 -0.23229166666666667 -0.21979166666666666 0.6937500000000001 0.6937500000000001 0 0 0 -0.3479166666666667 -0.08229166666666668zm-1.609375 0.05208333333333334 -0.6364583333333333 0.46666666666666673 0.23750000000000002 0.325 0.36041666666666666 -0.278125v1.4197916666666668h0.45625000000000004v-1.9333333333333336zm-1.58125 0.33645833333333336c0.059375000000000004 0 0.10833333333333334 0.020833333333333336 0.14583333333333337 0.06354166666666666a0.4375 0.4375 0 0 1 0.08541666666666668 0.15833333333333335 0.9479166666666667 0.9479166666666667 0 0 1 0.04166666666666667 0.20312500000000003 2.0479166666666666 2.0479166666666666 0 0 1 0 0.40312500000000007 0.990625 0.990625 0 0 1 -0.04166666666666667 0.20520833333333335 0.43854166666666666 0.43854166666666666 0 0 1 -0.08541666666666668 0.15833333333333335 0.184375 0.184375 0 0 1 -0.14583333333333337 0.0625 0.1875 0.1875 0 0 1 -0.14791666666666667 -0.0625 0.44583333333333336 0.44583333333333336 0 0 1 -0.08854166666666669 -0.15833333333333335 0.9520833333333334 0.9520833333333334 0 0 1 -0.04166666666666667 -0.20520833333333335 2.041666666666667 2.041666666666667 0 0 1 -0.011458333333333334 -0.20312500000000003c0 -0.060416666666666674 0.003125 -0.12708333333333333 0.010416666666666668 -0.2a0.9614583333333334 0.9614583333333334 0 0 1 0.04270833333333334 -0.20312500000000003c0.020833333333333336 -0.0625 0.05 -0.11458333333333334 0.08854166666666669 -0.15833333333333335a0.18854166666666666 0.18854166666666666 0 0 1 0.14791666666666667 -0.06354166666666666zm3.1906250000000003 0c0.059375000000000004 0 0.10833333333333334 0.020833333333333336 0.14583333333333337 0.06354166666666666a0.4375 0.4375 0 0 1 0.08541666666666668 0.15833333333333335 0.9791666666666666 0.9791666666666666 0 0 1 0.04166666666666667 0.20312500000000003 1.9895833333333335 1.9895833333333335 0 0 1 0 0.40312500000000007 0.9687500000000001 0.9687500000000001 0 0 1 -0.04166666666666667 0.20520833333333335 0.4395833333333333 0.4395833333333333 0 0 1 -0.08645833333333335 0.15833333333333335 0.18229166666666666 0.18229166666666666 0 0 1 -0.14583333333333337 0.0625 0.1875 0.1875 0 0 1 -0.146875 -0.0625 0.44062500000000004 0.44062500000000004 0 0 1 -0.08854166666666669 -0.15833333333333335 0.9447916666666668 0.9447916666666668 0 0 1 -0.04166666666666667 -0.20520833333333335 2.03125 2.03125 0 0 1 0 -0.40312500000000007 0.9531250000000001 0.9531250000000001 0 0 1 0.04166666666666667 -0.20312500000000003c0.020833333333333336 -0.0625 0.05 -0.11458333333333334 0.08854166666666669 -0.15833333333333335a0.18958333333333335 0.18958333333333335 0 0 1 0.14791666666666667 -0.06354166666666666zm-10.117708333333333 0.19270833333333334a0.48437500000000006 0.48437500000000006 0 0 0 -0.2416666666666667 0.05729166666666667 0.47500000000000003 0.47500000000000003 0 0 0 -0.16354166666666667 0.15208333333333335 0.6531250000000001 0.6531250000000001 0 0 0 -0.09270833333333334 0.22395833333333334 1.2166666666666668 1.2166666666666668 0 0 0 -0.028125 0.2697916666666667c0 0.09375 0.009375 0.184375 0.028125 0.27083333333333337a0.675 0.675 0 0 0 0.09270833333333334 0.225c0.04166666666666667 0.065625 0.096875 0.11666666666666668 0.16354166666666667 0.15520833333333334a0.4781250000000001 0.4781250000000001 0 0 0 0.2416666666666667 0.05833333333333334c0.09375 0 0.17500000000000002 -0.020833333333333336 0.24062500000000003 -0.05833333333333334a0.46875000000000006 0.46875000000000006 0 0 0 0.1625 -0.15520833333333334 0.6979166666666667 0.6979166666666667 0 0 0 0.090625 -0.22604166666666667 1.26875 1.26875 0 0 0 0 -0.5395833333333334 0.6739583333333334 0.6739583333333334 0 0 0 -0.090625 -0.22395833333333334 0.46666666666666673 0.46666666666666673 0 0 0 -0.1625 -0.15208333333333335 0.47708333333333336 0.47708333333333336 0 0 0 -0.23958333333333337 -0.05729166666666667zm1.0958333333333334 0.03645833333333334 -0.44062500000000004 0.3229166666666667 0.16458333333333336 0.22604166666666667 0.25 -0.19270833333333334v0.9833333333333334h0.315625v-1.3395833333333336zm-1.0958333333333334 0.23333333333333336c0.04166666666666667 0 0.07604166666666667 0.014583333333333335 0.10104166666666668 0.043750000000000004a0.29583333333333334 0.29583333333333334 0 0 1 0.059375000000000004 0.109375 0.71875 0.71875 0 0 1 0.02916666666666667 0.1416666666666667c0.0041666666666666675 0.05104166666666667 0.007291666666666668 0.09583333333333334 0.007291666666666668 0.13854166666666667 0 0.04166666666666667 -0.003125 0.08958333333333333 -0.007291666666666668 0.14062500000000003a0.7125000000000001 0.7125000000000001 0 0 1 -0.02916666666666667 0.1416666666666667 0.296875 0.296875 0 0 1 -0.059375000000000004 0.109375 0.12812500000000002 0.12812500000000002 0 0 1 -0.10104166666666668 0.04479166666666667 0.13020833333333334 0.13020833333333334 0 0 1 -0.10208333333333335 -0.04479166666666667 0.3104166666666667 0.3104166666666667 0 0 1 -0.06145833333333334 -0.109375 0.6375000000000001 0.6375000000000001 0 0 1 -0.02916666666666667 -0.1416666666666667 1.4479166666666667 1.4479166666666667 0 0 1 0 -0.27916666666666673 0.6458333333333334 0.6458333333333334 0 0 1 0.02916666666666667 -0.1416666666666667 0.309375 0.309375 0 0 1 0.0625 -0.109375 0.13020833333333334 0.13020833333333334 0 0 1 0.10104166666666668 -0.043750000000000004zm3.932291666666667 1.4520833333333334a0.48229166666666673 0.48229166666666673 0 0 0 -0.2416666666666667 0.05625 0.4708333333333334 0.4708333333333334 0 0 0 -0.16354166666666667 0.15208333333333335 0.6468750000000001 0.6468750000000001 0 0 0 -0.09166666666666667 0.22291666666666668 1.2395833333333333 1.2395833333333333 0 0 0 0 0.540625 0.6677083333333333 0.6677083333333333 0 0 0 0.09166666666666667 0.22604166666666667 0.47916666666666674 0.47916666666666674 0 0 0 0.16354166666666667 0.15625 0.47708333333333336 0.47708333333333336 0 0 0 0.2416666666666667 0.05625 0.4729166666666667 0.4729166666666667 0 0 0 0.2416666666666667 -0.05729166666666667 0.46875000000000006 0.46875000000000006 0 0 0 0.16145833333333334 -0.15520833333333334 0.6916666666666668 0.6916666666666668 0 0 0 0.090625 -0.22604166666666667 1.2385416666666669 1.2385416666666669 0 0 0 0 -0.540625 0.6687500000000001 0.6687500000000001 0 0 0 -0.090625 -0.22291666666666668 0.46458333333333335 0.46458333333333335 0 0 0 -0.16145833333333334 -0.15208333333333335 0.4781250000000001 0.4781250000000001 0 0 0 -0.2416666666666667 -0.05625zm1.0958333333333334 0.03541666666666667 -0.44062500000000004 0.3229166666666667 0.16458333333333336 0.225 0.25 -0.19270833333333334v0.984375h0.315625V23.625zm-1.0958333333333334 0.23229166666666667c0.04166666666666667 0 0.07604166666666667 0.014583333333333335 0.10208333333333335 0.04479166666666667a0.3125 0.3125 0 0 1 0.059375000000000004 0.109375 0.6697916666666668 0.6697916666666668 0 0 1 0.028125 0.14062500000000003 1.3645833333333335 1.3645833333333335 0 0 1 0 0.27916666666666673 0.68125 0.68125 0 0 1 -0.028125 0.14270833333333335 0.3197916666666667 0.3197916666666667 0 0 1 -0.059375000000000004 0.109375 0.12916666666666668 0.12916666666666668 0 0 1 -0.10208333333333335 0.043750000000000004 0.13020833333333334 0.13020833333333334 0 0 1 -0.10208333333333335 -0.043750000000000004 0.30520833333333336 0.30520833333333336 0 0 1 -0.06145833333333334 -0.109375 0.64375 0.64375 0 0 1 -0.02916666666666667 -0.14270833333333335 1.4208333333333336 1.4208333333333336 0 0 1 0 -0.27916666666666673 0.6375000000000001 0.6375000000000001 0 0 1 0.02916666666666667 -0.14062500000000003 0.2989583333333333 0.2989583333333333 0 0 1 0.0625 -0.109375 0.12812500000000002 0.12812500000000002 0 0 1 0.10104166666666668 -0.04479166666666667z" fill="#000000" stroke-width="1.0417"></path></svg>